{
	"asset":{
		"generator":"Khronos glTF Blender I/O v4.2.60",
		"version":"2.0"
	},
	"scene":0,
	"scenes":[
		{
			"name":"Scene",
			"nodes":[
				0,
				1,
				2,
				3,
				4,
				5,
				6,
				7,
				8,
				9,
				10,
				11,
				12,
				13,
				14,
				15,
				16,
				17
			]
		}
	],
	"nodes":[
		{
			"mesh":0,
			"name":"Cylinder",
			"scale":[
				0.4000000059604645,
				10,
				0.4000000059604645
			]
		},
		{
			"mesh":1,
			"name":"Cylinder.001",
			"scale":[
				0.4000000059604645,
				10,
				0.4000000059604645
			],
			"translation":[
				0,
				0,
				-10
			]
		},
		{
			"mesh":2,
			"name":"Cylinder.002",
			"scale":[
				0.4000000059604645,
				10,
				0.4000000059604645
			],
			"translation":[
				20.280183792114258,
				0,
				-10
			]
		},
		{
			"mesh":3,
			"name":"Cylinder.003",
			"scale":[
				0.4000000059604645,
				10,
				0.4000000059604645
			],
			"translation":[
				20.280183792114258,
				0,
				0
			]
		},
		{
			"mesh":4,
			"name":"Cylinder.004",
			"rotation":[
				0,
				0,
				-0.7071068286895752,
				0.7071067094802856
			],
			"scale":[
				0.40000006556510925,
				10.000000953674316,
				0.4000000059604645
			],
			"translation":[
				10,
				-7.242131233215332,
				0.11621372401714325
			]
		},
		{
			"mesh":5,
			"name":"Cylinder.007",
			"rotation":[
				0,
				0,
				-0.7071068286895752,
				0.7071067094802856
			],
			"scale":[
				0.40000006556510925,
				10.000000953674316,
				0.4000000059604645
			],
			"translation":[
				10,
				-2.0608792304992676,
				0.14986123144626617
			]
		},
		{
			"mesh":6,
			"name":"Cylinder.008",
			"rotation":[
				0,
				0,
				-0.7071068286895752,
				0.7071067094802856
			],
			"scale":[
				0.40000006556510925,
				10.000000953674316,
				0.4000000059604645
			],
			"translation":[
				10,
				5.000417709350586,
				0.14878739416599274
			]
		},
		{
			"mesh":7,
			"name":"Cylinder.009",
			"rotation":[
				0,
				0,
				-0.7071068286895752,
				0.7071067094802856
			],
			"scale":[
				0.40000006556510925,
				10.000000953674316,
				0.4000000059604645
			],
			"translation":[
				10,
				5.000417709350586,
				-10
			]
		},
		{
			"mesh":8,
			"name":"Cylinder.010",
			"rotation":[
				0,
				0,
				-0.7071068286895752,
				0.7071067094802856
			],
			"scale":[
				0.40000006556510925,
				10.000000953674316,
				0.4000000059604645
			],
			"translation":[
				10,
				8.866302490234375,
				-10
			]
		},
		{
			"mesh":9,
			"name":"Cylinder.011",
			"rotation":[
				0,
				0,
				-0.7071068286895752,
				0.7071067094802856
			],
			"scale":[
				0.40000006556510925,
				10.000000953674316,
				0.4000000059604645
			],
			"translation":[
				10,
				8.866302490234375,
				0.060294076800346375
			]
		},
		{
			"mesh":10,
			"name":"Cylinder.012",
			"rotation":[
				0,
				0,
				-0.7071068286895752,
				0.7071067094802856
			],
			"scale":[
				3.000000476837158,
				3.000000476837158,
				3
			],
			"translation":[
				5,
				0,
				-5
			]
		},
		{
			"mesh":11,
			"name":"Cube.002",
			"scale":[
				2,
				5,
				2
			],
			"translation":[
				4.022730827331543,
				4.182495594024658,
				-5
			]
		},
		{
			"mesh":12,
			"name":"Plane",
			"rotation":[
				0,
				0,
				-0.7071068286895752,
				0.7071067094802856
			],
			"scale":[
				2.000000238418579,
				1,
				5
			],
			"translation":[
				-0.2848144769668579,
				0,
				-4.854213237762451
			]
		},
		{
			"mesh":13,
			"name":"Cylinder.013",
			"rotation":[
				0,
				0,
				-0.7071068286895752,
				0.7071067094802856
			],
			"scale":[
				0.40000006556510925,
				2.000000238418579,
				0.4000000059604645
			],
			"translation":[
				1.809348225593567,
				0.873845100402832,
				-6.571981430053711
			]
		},
		{
			"mesh":14,
			"name":"Cylinder.015",
			"rotation":[
				0,
				0,
				-0.7071068286895752,
				0.7071067094802856
			],
			"scale":[
				0.40000006556510925,
				2.000000238418579,
				0.4000000059604645
			],
			"translation":[
				1.809348225593567,
				0.873845100402832,
				-3.5727128982543945
			]
		},
		{
			"mesh":15,
			"name":"Plane.001",
			"rotation":[
				0,
				0,
				-0.7071068286895752,
				0.7071067094802856
			],
			"scale":[
				0.5000000596046448,
				1,
				5
			],
			"translation":[
				20.172578811645508,
				-1.071448802947998,
				-4.854213237762451
			]
		},
		{
			"mesh":16,
			"name":"Plane.002",
			"rotation":[
				0,
				0,
				-0.7071068286895752,
				0.7071067094802856
			],
			"scale":[
				0.5000000596046448,
				1,
				5
			],
			"translation":[
				20.172578811645508,
				5.440901756286621,
				-4.854213237762451
			]
		},
		{
			"mesh":17,
			"name":"Plane.003",
			"rotation":[
				0,
				0,
				-0.7071068286895752,
				0.7071067094802856
			],
			"scale":[
				0.5000000596046448,
				1,
				5
			],
			"translation":[
				-0.23630249500274658,
				5.440901756286621,
				-4.854213237762451
			]
		}
	],
	"meshes":[
		{
			"name":"Cylinder",
			"primitives":[
				{
					"attributes":{
						"POSITION":0,
						"NORMAL":1,
						"TEXCOORD_0":2
					},
					"indices":3
				}
			]
		},
		{
			"name":"Cylinder.001",
			"primitives":[
				{
					"attributes":{
						"POSITION":4,
						"NORMAL":5,
						"TEXCOORD_0":6
					},
					"indices":3
				}
			]
		},
		{
			"name":"Cylinder.002",
			"primitives":[
				{
					"attributes":{
						"POSITION":7,
						"NORMAL":8,
						"TEXCOORD_0":9
					},
					"indices":3
				}
			]
		},
		{
			"name":"Cylinder.003",
			"primitives":[
				{
					"attributes":{
						"POSITION":10,
						"NORMAL":11,
						"TEXCOORD_0":12
					},
					"indices":3
				}
			]
		},
		{
			"name":"Cylinder.004",
			"primitives":[
				{
					"attributes":{
						"POSITION":13,
						"NORMAL":14,
						"TEXCOORD_0":15
					},
					"indices":3
				}
			]
		},
		{
			"name":"Cylinder.007",
			"primitives":[
				{
					"attributes":{
						"POSITION":16,
						"NORMAL":17,
						"TEXCOORD_0":18
					},
					"indices":3
				}
			]
		},
		{
			"name":"Cylinder.008",
			"primitives":[
				{
					"attributes":{
						"POSITION":19,
						"NORMAL":20,
						"TEXCOORD_0":21
					},
					"indices":3
				}
			]
		},
		{
			"name":"Cylinder.009",
			"primitives":[
				{
					"attributes":{
						"POSITION":22,
						"NORMAL":23,
						"TEXCOORD_0":24
					},
					"indices":3
				}
			]
		},
		{
			"name":"Cylinder.010",
			"primitives":[
				{
					"attributes":{
						"POSITION":25,
						"NORMAL":26,
						"TEXCOORD_0":27
					},
					"indices":3
				}
			]
		},
		{
			"name":"Cylinder.011",
			"primitives":[
				{
					"attributes":{
						"POSITION":28,
						"NORMAL":29,
						"TEXCOORD_0":30
					},
					"indices":3
				}
			]
		},
		{
			"name":"Cylinder.012",
			"primitives":[
				{
					"attributes":{
						"POSITION":31,
						"NORMAL":32,
						"TEXCOORD_0":33
					},
					"indices":3
				}
			]
		},
		{
			"name":"Cube.003",
			"primitives":[
				{
					"attributes":{
						"POSITION":34,
						"NORMAL":35,
						"TEXCOORD_0":36,
						"COLOR_0":37
					},
					"indices":38
				}
			]
		},
		{
			"name":"Plane.001",
			"primitives":[
				{
					"attributes":{
						"POSITION":39,
						"NORMAL":40,
						"TEXCOORD_0":41
					},
					"indices":42
				}
			]
		},
		{
			"name":"Cylinder.013",
			"primitives":[
				{
					"attributes":{
						"POSITION":43,
						"NORMAL":44,
						"TEXCOORD_0":45
					},
					"indices":3
				}
			]
		},
		{
			"name":"Cylinder.015",
			"primitives":[
				{
					"attributes":{
						"POSITION":46,
						"NORMAL":47,
						"TEXCOORD_0":48
					},
					"indices":3
				}
			]
		},
		{
			"name":"Plane.002",
			"primitives":[
				{
					"attributes":{
						"POSITION":49,
						"NORMAL":50,
						"TEXCOORD_0":51
					},
					"indices":42
				}
			]
		},
		{
			"name":"Plane.003",
			"primitives":[
				{
					"attributes":{
						"POSITION":52,
						"NORMAL":53,
						"TEXCOORD_0":54
					},
					"indices":42
				}
			]
		},
		{
			"name":"Plane.004",
			"primitives":[
				{
					"attributes":{
						"POSITION":55,
						"NORMAL":56,
						"TEXCOORD_0":57
					},
					"indices":42
				}
			]
		}
	],
	"accessors":[
		{
			"bufferView":0,
			"componentType":5126,
			"count":192,
			"max":[
				1,
				1,
				1
			],
			"min":[
				-1,
				-1,
				-1
			],
			"type":"VEC3"
		},
		{
			"bufferView":1,
			"componentType":5126,
			"count":192,
			"type":"VEC3"
		},
		{
			"bufferView":2,
			"componentType":5126,
			"count":192,
			"type":"VEC2"
		},
		{
			"bufferView":3,
			"componentType":5123,
			"count":372,
			"type":"SCALAR"
		},
		{
			"bufferView":4,
			"componentType":5126,
			"count":192,
			"max":[
				1,
				1,
				1
			],
			"min":[
				-1,
				-1,
				-1
			],
			"type":"VEC3"
		},
		{
			"bufferView":5,
			"componentType":5126,
			"count":192,
			"type":"VEC3"
		},
		{
			"bufferView":6,
			"componentType":5126,
			"count":192,
			"type":"VEC2"
		},
		{
			"bufferView":7,
			"componentType":5126,
			"count":192,
			"max":[
				1,
				1,
				1
			],
			"min":[
				-1,
				-1,
				-1
			],
			"type":"VEC3"
		},
		{
			"bufferView":8,
			"componentType":5126,
			"count":192,
			"type":"VEC3"
		},
		{
			"bufferView":9,
			"componentType":5126,
			"count":192,
			"type":"VEC2"
		},
		{
			"bufferView":10,
			"componentType":5126,
			"count":192,
			"max":[
				1,
				1,
				1
			],
			"min":[
				-1,
				-1,
				-1
			],
			"type":"VEC3"
		},
		{
			"bufferView":11,
			"componentType":5126,
			"count":192,
			"type":"VEC3"
		},
		{
			"bufferView":12,
			"componentType":5126,
			"count":192,
			"type":"VEC2"
		},
		{
			"bufferView":13,
			"componentType":5126,
			"count":192,
			"max":[
				1,
				1,
				1
			],
			"min":[
				-1,
				-1,
				-1
			],
			"type":"VEC3"
		},
		{
			"bufferView":14,
			"componentType":5126,
			"count":192,
			"type":"VEC3"
		},
		{
			"bufferView":15,
			"componentType":5126,
			"count":192,
			"type":"VEC2"
		},
		{
			"bufferView":16,
			"componentType":5126,
			"count":192,
			"max":[
				1,
				1,
				1
			],
			"min":[
				-1,
				-1,
				-1
			],
			"type":"VEC3"
		},
		{
			"bufferView":17,
			"componentType":5126,
			"count":192,
			"type":"VEC3"
		},
		{
			"bufferView":18,
			"componentType":5126,
			"count":192,
			"type":"VEC2"
		},
		{
			"bufferView":19,
			"componentType":5126,
			"count":192,
			"max":[
				1,
				1,
				1
			],
			"min":[
				-1,
				-1,
				-1
			],
			"type":"VEC3"
		},
		{
			"bufferView":20,
			"componentType":5126,
			"count":192,
			"type":"VEC3"
		},
		{
			"bufferView":21,
			"componentType":5126,
			"count":192,
			"type":"VEC2"
		},
		{
			"bufferView":22,
			"componentType":5126,
			"count":192,
			"max":[
				1,
				1,
				1
			],
			"min":[
				-1,
				-1,
				-1
			],
			"type":"VEC3"
		},
		{
			"bufferView":23,
			"componentType":5126,
			"count":192,
			"type":"VEC3"
		},
		{
			"bufferView":24,
			"componentType":5126,
			"count":192,
			"type":"VEC2"
		},
		{
			"bufferView":25,
			"componentType":5126,
			"count":192,
			"max":[
				1,
				1,
				1
			],
			"min":[
				-1,
				-1,
				-1
			],
			"type":"VEC3"
		},
		{
			"bufferView":26,
			"componentType":5126,
			"count":192,
			"type":"VEC3"
		},
		{
			"bufferView":27,
			"componentType":5126,
			"count":192,
			"type":"VEC2"
		},
		{
			"bufferView":28,
			"componentType":5126,
			"count":192,
			"max":[
				1,
				1,
				1
			],
			"min":[
				-1,
				-1,
				-1
			],
			"type":"VEC3"
		},
		{
			"bufferView":29,
			"componentType":5126,
			"count":192,
			"type":"VEC3"
		},
		{
			"bufferView":30,
			"componentType":5126,
			"count":192,
			"type":"VEC2"
		},
		{
			"bufferView":31,
			"componentType":5126,
			"count":192,
			"max":[
				1,
				1,
				1
			],
			"min":[
				-1,
				-1,
				-1
			],
			"type":"VEC3"
		},
		{
			"bufferView":32,
			"componentType":5126,
			"count":192,
			"type":"VEC3"
		},
		{
			"bufferView":33,
			"componentType":5126,
			"count":192,
			"type":"VEC2"
		},
		{
			"bufferView":34,
			"componentType":5126,
			"count":20,
			"max":[
				2.873991012573242,
				1,
				1
			],
			"min":[
				-1,
				-1,
				-1
			],
			"type":"VEC3"
		},
		{
			"bufferView":35,
			"componentType":5126,
			"count":20,
			"type":"VEC3"
		},
		{
			"bufferView":36,
			"componentType":5126,
			"count":20,
			"type":"VEC2"
		},
		{
			"bufferView":37,
			"componentType":5123,
			"count":20,
			"normalized":true,
			"type":"VEC4"
		},
		{
			"bufferView":38,
			"componentType":5123,
			"count":30,
			"type":"SCALAR"
		},
		{
			"bufferView":39,
			"componentType":5126,
			"count":24,
			"max":[
				1,
				0.30155596137046814,
				1
			],
			"min":[
				-1,
				0,
				-1
			],
			"type":"VEC3"
		},
		{
			"bufferView":40,
			"componentType":5126,
			"count":24,
			"type":"VEC3"
		},
		{
			"bufferView":41,
			"componentType":5126,
			"count":24,
			"type":"VEC2"
		},
		{
			"bufferView":42,
			"componentType":5123,
			"count":36,
			"type":"SCALAR"
		},
		{
			"bufferView":43,
			"componentType":5126,
			"count":192,
			"max":[
				1,
				1,
				1
			],
			"min":[
				-1,
				-1,
				-1
			],
			"type":"VEC3"
		},
		{
			"bufferView":44,
			"componentType":5126,
			"count":192,
			"type":"VEC3"
		},
		{
			"bufferView":45,
			"componentType":5126,
			"count":192,
			"type":"VEC2"
		},
		{
			"bufferView":46,
			"componentType":5126,
			"count":192,
			"max":[
				1,
				1,
				1
			],
			"min":[
				-1,
				-1,
				-1
			],
			"type":"VEC3"
		},
		{
			"bufferView":47,
			"componentType":5126,
			"count":192,
			"type":"VEC3"
		},
		{
			"bufferView":48,
			"componentType":5126,
			"count":192,
			"type":"VEC2"
		},
		{
			"bufferView":49,
			"componentType":5126,
			"count":24,
			"max":[
				1,
				0.30155596137046814,
				1
			],
			"min":[
				-1,
				0,
				-1
			],
			"type":"VEC3"
		},
		{
			"bufferView":50,
			"componentType":5126,
			"count":24,
			"type":"VEC3"
		},
		{
			"bufferView":51,
			"componentType":5126,
			"count":24,
			"type":"VEC2"
		},
		{
			"bufferView":52,
			"componentType":5126,
			"count":24,
			"max":[
				1,
				0.30155596137046814,
				1
			],
			"min":[
				-1,
				0,
				-1
			],
			"type":"VEC3"
		},
		{
			"bufferView":53,
			"componentType":5126,
			"count":24,
			"type":"VEC3"
		},
		{
			"bufferView":54,
			"componentType":5126,
			"count":24,
			"type":"VEC2"
		},
		{
			"bufferView":55,
			"componentType":5126,
			"count":24,
			"max":[
				1,
				0.30155596137046814,
				1
			],
			"min":[
				-1,
				0,
				-1
			],
			"type":"VEC3"
		},
		{
			"bufferView":56,
			"componentType":5126,
			"count":24,
			"type":"VEC3"
		},
		{
			"bufferView":57,
			"componentType":5126,
			"count":24,
			"type":"VEC2"
		}
	],
	"bufferViews":[
		{
			"buffer":0,
			"byteLength":2304,
			"byteOffset":0,
			"target":34962
		},
		{
			"buffer":0,
			"byteLength":2304,
			"byteOffset":2304,
			"target":34962
		},
		{
			"buffer":0,
			"byteLength":1536,
			"byteOffset":4608,
			"target":34962
		},
		{
			"buffer":0,
			"byteLength":744,
			"byteOffset":6144,
			"target":34963
		},
		{
			"buffer":0,
			"byteLength":2304,
			"byteOffset":6888,
			"target":34962
		},
		{
			"buffer":0,
			"byteLength":2304,
			"byteOffset":9192,
			"target":34962
		},
		{
			"buffer":0,
			"byteLength":1536,
			"byteOffset":11496,
			"target":34962
		},
		{
			"buffer":0,
			"byteLength":2304,
			"byteOffset":13032,
			"target":34962
		},
		{
			"buffer":0,
			"byteLength":2304,
			"byteOffset":15336,
			"target":34962
		},
		{
			"buffer":0,
			"byteLength":1536,
			"byteOffset":17640,
			"target":34962
		},
		{
			"buffer":0,
			"byteLength":2304,
			"byteOffset":19176,
			"target":34962
		},
		{
			"buffer":0,
			"byteLength":2304,
			"byteOffset":21480,
			"target":34962
		},
		{
			"buffer":0,
			"byteLength":1536,
			"byteOffset":23784,
			"target":34962
		},
		{
			"buffer":0,
			"byteLength":2304,
			"byteOffset":25320,
			"target":34962
		},
		{
			"buffer":0,
			"byteLength":2304,
			"byteOffset":27624,
			"target":34962
		},
		{
			"buffer":0,
			"byteLength":1536,
			"byteOffset":29928,
			"target":34962
		},
		{
			"buffer":0,
			"byteLength":2304,
			"byteOffset":31464,
			"target":34962
		},
		{
			"buffer":0,
			"byteLength":2304,
			"byteOffset":33768,
			"target":34962
		},
		{
			"buffer":0,
			"byteLength":1536,
			"byteOffset":36072,
			"target":34962
		},
		{
			"buffer":0,
			"byteLength":2304,
			"byteOffset":37608,
			"target":34962
		},
		{
			"buffer":0,
			"byteLength":2304,
			"byteOffset":39912,
			"target":34962
		},
		{
			"buffer":0,
			"byteLength":1536,
			"byteOffset":42216,
			"target":34962
		},
		{
			"buffer":0,
			"byteLength":2304,
			"byteOffset":43752,
			"target":34962
		},
		{
			"buffer":0,
			"byteLength":2304,
			"byteOffset":46056,
			"target":34962
		},
		{
			"buffer":0,
			"byteLength":1536,
			"byteOffset":48360,
			"target":34962
		},
		{
			"buffer":0,
			"byteLength":2304,
			"byteOffset":49896,
			"target":34962
		},
		{
			"buffer":0,
			"byteLength":2304,
			"byteOffset":52200,
			"target":34962
		},
		{
			"buffer":0,
			"byteLength":1536,
			"byteOffset":54504,
			"target":34962
		},
		{
			"buffer":0,
			"byteLength":2304,
			"byteOffset":56040,
			"target":34962
		},
		{
			"buffer":0,
			"byteLength":2304,
			"byteOffset":58344,
			"target":34962
		},
		{
			"buffer":0,
			"byteLength":1536,
			"byteOffset":60648,
			"target":34962
		},
		{
			"buffer":0,
			"byteLength":2304,
			"byteOffset":62184,
			"target":34962
		},
		{
			"buffer":0,
			"byteLength":2304,
			"byteOffset":64488,
			"target":34962
		},
		{
			"buffer":0,
			"byteLength":1536,
			"byteOffset":66792,
			"target":34962
		},
		{
			"buffer":0,
			"byteLength":240,
			"byteOffset":68328,
			"target":34962
		},
		{
			"buffer":0,
			"byteLength":240,
			"byteOffset":68568,
			"target":34962
		},
		{
			"buffer":0,
			"byteLength":160,
			"byteOffset":68808,
			"target":34962
		},
		{
			"buffer":0,
			"byteLength":160,
			"byteOffset":68968,
			"target":34962
		},
		{
			"buffer":0,
			"byteLength":60,
			"byteOffset":69128,
			"target":34963
		},
		{
			"buffer":0,
			"byteLength":288,
			"byteOffset":69188,
			"target":34962
		},
		{
			"buffer":0,
			"byteLength":288,
			"byteOffset":69476,
			"target":34962
		},
		{
			"buffer":0,
			"byteLength":192,
			"byteOffset":69764,
			"target":34962
		},
		{
			"buffer":0,
			"byteLength":72,
			"byteOffset":69956,
			"target":34963
		},
		{
			"buffer":0,
			"byteLength":2304,
			"byteOffset":70028,
			"target":34962
		},
		{
			"buffer":0,
			"byteLength":2304,
			"byteOffset":72332,
			"target":34962
		},
		{
			"buffer":0,
			"byteLength":1536,
			"byteOffset":74636,
			"target":34962
		},
		{
			"buffer":0,
			"byteLength":2304,
			"byteOffset":76172,
			"target":34962
		},
		{
			"buffer":0,
			"byteLength":2304,
			"byteOffset":78476,
			"target":34962
		},
		{
			"buffer":0,
			"byteLength":1536,
			"byteOffset":80780,
			"target":34962
		},
		{
			"buffer":0,
			"byteLength":288,
			"byteOffset":82316,
			"target":34962
		},
		{
			"buffer":0,
			"byteLength":288,
			"byteOffset":82604,
			"target":34962
		},
		{
			"buffer":0,
			"byteLength":192,
			"byteOffset":82892,
			"target":34962
		},
		{
			"buffer":0,
			"byteLength":288,
			"byteOffset":83084,
			"target":34962
		},
		{
			"buffer":0,
			"byteLength":288,
			"byteOffset":83372,
			"target":34962
		},
		{
			"buffer":0,
			"byteLength":192,
			"byteOffset":83660,
			"target":34962
		},
		{
			"buffer":0,
			"byteLength":288,
			"byteOffset":83852,
			"target":34962
		},
		{
			"buffer":0,
			"byteLength":288,
			"byteOffset":84140,
			"target":34962
		},
		{
			"buffer":0,
			"byteLength":192,
			"byteOffset":84428,
			"target":34962
		}
	],
	"buffers":[
		{
			"byteLength":84620,
			"uri":"construction_3.bin"
		}
	]
}
