{
	"asset":{
		"generator":"Khronos glTF Blender I/O v4.2.60",
		"version":"2.0"
	},
	"scene":0,
	"scenes":[
		{
			"name":"Scene",
			"nodes":[
				0,
				1,
				2,
				3,
				4,
				5
			]
		}
	],
	"nodes":[
		{
			"mesh":0,
			"name":"Cube",
			"translation":[
				9.648015975952148,
				-0.40023067593574524,
				-4.844389915466309
			]
		},
		{
			"mesh":1,
			"name":"Cylinder.016",
			"rotation":[
				0,
				0,
				-0.7071068286895752,
				0.7071067094802856
			],
			"scale":[
				0.6000000834465027,
				0.5000000596046448,
				0.6000000238418579
			],
			"translation":[
				11.112707138061523,
				-0.35998019576072693,
				-5
			]
		},
		{
			"mesh":2,
			"name":"Cylinder.017",
			"rotation":[
				0,
				0,
				-0.7071068286895752,
				0.7071067094802856
			],
			"scale":[
				0.4500000476837158,
				0.4500000476837158,
				0.44999998807907104
			],
			"translation":[
				11.605670928955078,
				-0.35998019576072693,
				-5
			]
		},
		{
			"mesh":3,
			"name":"Cylinder.018",
			"rotation":[
				0,
				0,
				-0.7071068286895752,
				0.7071067094802856
			],
			"scale":[
				0.5000000596046448,
				0.7000000476837158,
				0.5
			],
			"translation":[
				12.602755546569824,
				-0.35998019576072693,
				-5
			]
		},
		{
			"mesh":4,
			"name":"Cylinder.020",
			"rotation":[
				0,
				0,
				-0.7071068286895752,
				0.7071067094802856
			],
			"scale":[
				0.5000000596046448,
				0.5000000596046448,
				0.5
			],
			"translation":[
				8.364901542663574,
				-2.1269607543945312,
				-4.963670253753662
			]
		},
		{
			"mesh":5,
			"name":"Cylinder.014",
			"scale":[
				1,
				2.299999952316284,
				1
			],
			"translation":[
				9.423955917358398,
				-3.037728786468506,
				-4.811506748199463
			]
		}
	],
	"meshes":[
		{
			"name":"Cube.004",
			"primitives":[
				{
					"attributes":{
						"POSITION":0,
						"NORMAL":1,
						"TEXCOORD_0":2
					},
					"indices":3
				}
			]
		},
		{
			"name":"Cylinder.017",
			"primitives":[
				{
					"attributes":{
						"POSITION":4,
						"NORMAL":5,
						"TEXCOORD_0":6
					},
					"indices":7
				}
			]
		},
		{
			"name":"Cylinder.018",
			"primitives":[
				{
					"attributes":{
						"POSITION":8,
						"NORMAL":9,
						"TEXCOORD_0":10
					},
					"indices":7
				}
			]
		},
		{
			"name":"Cylinder.019",
			"primitives":[
				{
					"attributes":{
						"POSITION":11,
						"NORMAL":12,
						"TEXCOORD_0":13
					},
					"indices":7
				}
			]
		},
		{
			"name":"Cylinder.014",
			"primitives":[
				{
					"attributes":{
						"POSITION":14,
						"NORMAL":15,
						"TEXCOORD_0":16
					},
					"indices":17
				}
			]
		},
		{
			"name":"Cylinder.021",
			"primitives":[
				{
					"attributes":{
						"POSITION":18,
						"NORMAL":19,
						"TEXCOORD_0":20
					},
					"indices":21
				}
			]
		}
	],
	"accessors":[
		{
			"bufferView":0,
			"componentType":5126,
			"count":24,
			"max":[
				1,
				1,
				1
			],
			"min":[
				-1,
				-1,
				-1
			],
			"type":"VEC3"
		},
		{
			"bufferView":1,
			"componentType":5126,
			"count":24,
			"type":"VEC3"
		},
		{
			"bufferView":2,
			"componentType":5126,
			"count":24,
			"type":"VEC2"
		},
		{
			"bufferView":3,
			"componentType":5123,
			"count":36,
			"type":"SCALAR"
		},
		{
			"bufferView":4,
			"componentType":5126,
			"count":192,
			"max":[
				1,
				1,
				1
			],
			"min":[
				-1,
				-1,
				-1
			],
			"type":"VEC3"
		},
		{
			"bufferView":5,
			"componentType":5126,
			"count":192,
			"type":"VEC3"
		},
		{
			"bufferView":6,
			"componentType":5126,
			"count":192,
			"type":"VEC2"
		},
		{
			"bufferView":7,
			"componentType":5123,
			"count":372,
			"type":"SCALAR"
		},
		{
			"bufferView":8,
			"componentType":5126,
			"count":192,
			"max":[
				1,
				1,
				1
			],
			"min":[
				-1,
				-1,
				-1
			],
			"type":"VEC3"
		},
		{
			"bufferView":9,
			"componentType":5126,
			"count":192,
			"type":"VEC3"
		},
		{
			"bufferView":10,
			"componentType":5126,
			"count":192,
			"type":"VEC2"
		},
		{
			"bufferView":11,
			"componentType":5126,
			"count":192,
			"max":[
				1,
				1,
				1
			],
			"min":[
				-1,
				-1,
				-1
			],
			"type":"VEC3"
		},
		{
			"bufferView":12,
			"componentType":5126,
			"count":192,
			"type":"VEC3"
		},
		{
			"bufferView":13,
			"componentType":5126,
			"count":192,
			"type":"VEC2"
		},
		{
			"bufferView":14,
			"componentType":5126,
			"count":128,
			"max":[
				1,
				1,
				1
			],
			"min":[
				-1,
				-1,
				-1
			],
			"type":"VEC3"
		},
		{
			"bufferView":15,
			"componentType":5126,
			"count":128,
			"type":"VEC3"
		},
		{
			"bufferView":16,
			"componentType":5126,
			"count":128,
			"type":"VEC2"
		},
		{
			"bufferView":17,
			"componentType":5123,
			"count":192,
			"type":"SCALAR"
		},
		{
			"bufferView":18,
			"componentType":5126,
			"count":160,
			"max":[
				1,
				1,
				1
			],
			"min":[
				-1,
				-1,
				-1
			],
			"type":"VEC3"
		},
		{
			"bufferView":19,
			"componentType":5126,
			"count":160,
			"type":"VEC3"
		},
		{
			"bufferView":20,
			"componentType":5126,
			"count":160,
			"type":"VEC2"
		},
		{
			"bufferView":21,
			"componentType":5123,
			"count":324,
			"type":"SCALAR"
		}
	],
	"bufferViews":[
		{
			"buffer":0,
			"byteLength":288,
			"byteOffset":0,
			"target":34962
		},
		{
			"buffer":0,
			"byteLength":288,
			"byteOffset":288,
			"target":34962
		},
		{
			"buffer":0,
			"byteLength":192,
			"byteOffset":576,
			"target":34962
		},
		{
			"buffer":0,
			"byteLength":72,
			"byteOffset":768,
			"target":34963
		},
		{
			"buffer":0,
			"byteLength":2304,
			"byteOffset":840,
			"target":34962
		},
		{
			"buffer":0,
			"byteLength":2304,
			"byteOffset":3144,
			"target":34962
		},
		{
			"buffer":0,
			"byteLength":1536,
			"byteOffset":5448,
			"target":34962
		},
		{
			"buffer":0,
			"byteLength":744,
			"byteOffset":6984,
			"target":34963
		},
		{
			"buffer":0,
			"byteLength":2304,
			"byteOffset":7728,
			"target":34962
		},
		{
			"buffer":0,
			"byteLength":2304,
			"byteOffset":10032,
			"target":34962
		},
		{
			"buffer":0,
			"byteLength":1536,
			"byteOffset":12336,
			"target":34962
		},
		{
			"buffer":0,
			"byteLength":2304,
			"byteOffset":13872,
			"target":34962
		},
		{
			"buffer":0,
			"byteLength":2304,
			"byteOffset":16176,
			"target":34962
		},
		{
			"buffer":0,
			"byteLength":1536,
			"byteOffset":18480,
			"target":34962
		},
		{
			"buffer":0,
			"byteLength":1536,
			"byteOffset":20016,
			"target":34962
		},
		{
			"buffer":0,
			"byteLength":1536,
			"byteOffset":21552,
			"target":34962
		},
		{
			"buffer":0,
			"byteLength":1024,
			"byteOffset":23088,
			"target":34962
		},
		{
			"buffer":0,
			"byteLength":384,
			"byteOffset":24112,
			"target":34963
		},
		{
			"buffer":0,
			"byteLength":1920,
			"byteOffset":24496,
			"target":34962
		},
		{
			"buffer":0,
			"byteLength":1920,
			"byteOffset":26416,
			"target":34962
		},
		{
			"buffer":0,
			"byteLength":1280,
			"byteOffset":28336,
			"target":34962
		},
		{
			"buffer":0,
			"byteLength":648,
			"byteOffset":29616,
			"target":34963
		}
	],
	"buffers":[
		{
			"byteLength":30264,
			"uri":"model_container.bin"
		}
	]
}
