{
	"asset":{
		"generator":"Khronos glTF Blender I/O v4.2.60",
		"version":"2.0"
	},
	"extensionsUsed":[
		"KHR_materials_specular"
	],
	"scene":0,
	"scenes":[
		{
			"name":"Scene",
			"nodes":[
				0,
				1
			]
		}
	],
	"nodes":[
		{
			"mesh":0,
			"name":"uploads_files_107405_spring.SLDPRT(7)",
			"rotation":[
				0.7071068286895752,
				0,
				0,
				0.7071068286895752
			]
		},
		{
			"mesh":1,
			"name":"Cone",
			"rotation":[
				-0.7071068286895752,
				0.7071068286895752,
				0,
				3.090862321641907e-08
			],
			"scale":[
				0.30000001192092896,
				0.30000001192092896,
				0.30000001192092896
			],
			"translation":[
				0.018872292712330818,
				-9.393010139465332,
				1.0089242458343506
			]
		}
	],
	"materials":[
		{
			"doubleSided":true,
			"extensions":{
				"KHR_materials_specular":{
					"specularFactor":0
				}
			},
			"name":"Material #25",
			"pbrMetallicRoughness":{
				"baseColorFactor":[
					0.800000011920929,
					0.800000011920929,
					0.800000011920929,
					1
				],
				"metallicFactor":0
			}
		}
	],
	"meshes":[
		{
			"name":"uploads_files_107405_spring.SLDPRT(7)",
			"primitives":[
				{
					"attributes":{
						"POSITION":0,
						"NORMAL":1,
						"TEXCOORD_0":2
					},
					"indices":3,
					"material":0
				}
			]
		},
		{
			"name":"Cone.001",
			"primitives":[
				{
					"attributes":{
						"POSITION":4,
						"NORMAL":5,
						"TEXCOORD_0":6
					},
					"indices":7
				}
			]
		}
	],
	"accessors":[
		{
			"bufferView":0,
			"componentType":5126,
			"count":240868,
			"max":[
				1.1714695692062378,
				1.1715980768203735,
				9.528172492980957
			],
			"min":[
				-1.1715980768203735,
				-1.1714692115783691,
				0.039992235600948334
			],
			"type":"VEC3"
		},
		{
			"bufferView":1,
			"componentType":5126,
			"count":240868,
			"type":"VEC3"
		},
		{
			"bufferView":2,
			"componentType":5126,
			"count":240868,
			"type":"VEC2"
		},
		{
			"bufferView":3,
			"componentType":5125,
			"count":634212,
			"type":"SCALAR"
		},
		{
			"bufferView":4,
			"componentType":5126,
			"count":128,
			"max":[
				1,
				1,
				1
			],
			"min":[
				-1,
				-1,
				-1
			],
			"type":"VEC3"
		},
		{
			"bufferView":5,
			"componentType":5126,
			"count":128,
			"type":"VEC3"
		},
		{
			"bufferView":6,
			"componentType":5126,
			"count":128,
			"type":"VEC2"
		},
		{
			"bufferView":7,
			"componentType":5123,
			"count":186,
			"type":"SCALAR"
		}
	],
	"bufferViews":[
		{
			"buffer":0,
			"byteLength":2890416,
			"byteOffset":0,
			"target":34962
		},
		{
			"buffer":0,
			"byteLength":2890416,
			"byteOffset":2890416,
			"target":34962
		},
		{
			"buffer":0,
			"byteLength":1926944,
			"byteOffset":5780832,
			"target":34962
		},
		{
			"buffer":0,
			"byteLength":2536848,
			"byteOffset":7707776,
			"target":34963
		},
		{
			"buffer":0,
			"byteLength":1536,
			"byteOffset":10244624,
			"target":34962
		},
		{
			"buffer":0,
			"byteLength":1536,
			"byteOffset":10246160,
			"target":34962
		},
		{
			"buffer":0,
			"byteLength":1024,
			"byteOffset":10247696,
			"target":34962
		},
		{
			"buffer":0,
			"byteLength":372,
			"byteOffset":10248720,
			"target":34963
		}
	],
	"buffers":[
		{
			"byteLength":10249092,
			"uri":"spiral.bin"
		}
	]
}
