{
	"asset":{
		"generator":"Khronos glTF Blender I/O v4.2.60",
		"version":"2.0"
	},
	"scene":0,
	"scenes":[
		{
			"name":"Scene",
			"nodes":[
				0,
				1,
				2,
				3,
				4,
				5,
				6,
				7
			]
		}
	],
	"nodes":[
		{
			"mesh":0,
			"name":"Cylinder.019",
			"scale":[
				1,
				2.299999952316284,
				1
			],
			"translation":[
				9.423955917358398,
				-8.541656494140625,
				-4.811506748199463
			]
		},
		{
			"mesh":1,
			"name":"Cylinder.021",
			"scale":[
				1,
				2.299999952316284,
				1
			],
			"translation":[
				9.383828163146973,
				-6.342270851135254,
				-4.811506748199463
			]
		},
		{
			"mesh":2,
			"name":"Cylinder.022",
			"rotation":[
				0,
				0,
				-0.12648379802703857,
				0.9919686913490295
			],
			"scale":[
				1,
				0.05000000074505806,
				1
			],
			"translation":[
				9.420000076293945,
				-7.6340718269348145,
				-4.800000190734863
			]
		},
		{
			"mesh":3,
			"name":"Cylinder.023",
			"rotation":[
				0,
				0,
				0.1776609867811203,
				0.9840917587280273
			],
			"scale":[
				1,
				0.05000000074505806,
				1
			],
			"translation":[
				9.420000076293945,
				-9.014317512512207,
				-4.800000190734863
			]
		},
		{
			"mesh":4,
			"name":"Cylinder.024",
			"scale":[
				1,
				0.05000000074505806,
				1
			],
			"translation":[
				9.420000076293945,
				-9.958934783935547,
				-4.800000190734863
			]
		},
		{
			"mesh":5,
			"name":"Cylinder.025",
			"rotation":[
				0,
				0,
				-0.7071068286895752,
				0.7071068286895752
			],
			"scale":[
				0.6000000238418579,
				0.05000000074505806,
				0.6000000238418579
			],
			"translation":[
				10.411596298217773,
				-9.012537956237793,
				-4.757183074951172
			]
		},
		{
			"mesh":6,
			"name":"Cylinder.026",
			"rotation":[
				0,
				0,
				-0.7071068286895752,
				0.7071068286895752
			],
			"scale":[
				0.10000000149011612,
				0.30000001192092896,
				0.10000000149011612
			],
			"translation":[
				10.612272262573242,
				-7.394674301147461,
				-4.663177490234375
			]
		},
		{
			"mesh":7,
			"name":"Cylinder.027",
			"scale":[
				0.10000000149011612,
				0.30000001192092896,
				0.10000000149011612
			],
			"translation":[
				10.890340805053711,
				-7.13703727722168,
				-4.663177490234375
			]
		}
	],
	"meshes":[
		{
			"name":"Cylinder.022",
			"primitives":[
				{
					"attributes":{
						"POSITION":0,
						"NORMAL":1,
						"TEXCOORD_0":2
					},
					"indices":3
				}
			]
		},
		{
			"name":"Cylinder.023",
			"primitives":[
				{
					"attributes":{
						"POSITION":4,
						"NORMAL":5,
						"TEXCOORD_0":6
					},
					"indices":7
				}
			]
		},
		{
			"name":"Cylinder.024",
			"primitives":[
				{
					"attributes":{
						"POSITION":8,
						"NORMAL":9,
						"TEXCOORD_0":10
					},
					"indices":11
				}
			]
		},
		{
			"name":"Cylinder.025",
			"primitives":[
				{
					"attributes":{
						"POSITION":12,
						"NORMAL":13,
						"TEXCOORD_0":14
					},
					"indices":11
				}
			]
		},
		{
			"name":"Cylinder.026",
			"primitives":[
				{
					"attributes":{
						"POSITION":15,
						"NORMAL":16,
						"TEXCOORD_0":17
					},
					"indices":11
				}
			]
		},
		{
			"name":"Cylinder.027",
			"primitives":[
				{
					"attributes":{
						"POSITION":18,
						"NORMAL":19,
						"TEXCOORD_0":20
					},
					"indices":11
				}
			]
		},
		{
			"name":"Cylinder.028",
			"primitives":[
				{
					"attributes":{
						"POSITION":21,
						"NORMAL":22,
						"TEXCOORD_0":23
					},
					"indices":11
				}
			]
		},
		{
			"name":"Cylinder.029",
			"primitives":[
				{
					"attributes":{
						"POSITION":24,
						"NORMAL":25,
						"TEXCOORD_0":26
					},
					"indices":11
				}
			]
		}
	],
	"accessors":[
		{
			"bufferView":0,
			"componentType":5126,
			"count":124,
			"max":[
				1,
				1,
				1
			],
			"min":[
				-1,
				-1,
				-1
			],
			"type":"VEC3"
		},
		{
			"bufferView":1,
			"componentType":5126,
			"count":124,
			"type":"VEC3"
		},
		{
			"bufferView":2,
			"componentType":5126,
			"count":124,
			"type":"VEC2"
		},
		{
			"bufferView":3,
			"componentType":5123,
			"count":228,
			"type":"SCALAR"
		},
		{
			"bufferView":4,
			"componentType":5126,
			"count":2074,
			"max":[
				1.19089937210083,
				0.08299171924591064,
				1.0817865133285522
			],
			"min":[
				-1.0437158346176147,
				-0.03296685218811035,
				-1.1188957691192627
			],
			"type":"VEC3"
		},
		{
			"bufferView":5,
			"componentType":5126,
			"count":2074,
			"type":"VEC3"
		},
		{
			"bufferView":6,
			"componentType":5126,
			"count":2074,
			"type":"VEC2"
		},
		{
			"bufferView":7,
			"componentType":5123,
			"count":3528,
			"type":"SCALAR"
		},
		{
			"bufferView":8,
			"componentType":5126,
			"count":192,
			"max":[
				1,
				1,
				1
			],
			"min":[
				-1,
				-1,
				-1
			],
			"type":"VEC3"
		},
		{
			"bufferView":9,
			"componentType":5126,
			"count":192,
			"type":"VEC3"
		},
		{
			"bufferView":10,
			"componentType":5126,
			"count":192,
			"type":"VEC2"
		},
		{
			"bufferView":11,
			"componentType":5123,
			"count":372,
			"type":"SCALAR"
		},
		{
			"bufferView":12,
			"componentType":5126,
			"count":192,
			"max":[
				1,
				1,
				1
			],
			"min":[
				-1,
				-1,
				-1
			],
			"type":"VEC3"
		},
		{
			"bufferView":13,
			"componentType":5126,
			"count":192,
			"type":"VEC3"
		},
		{
			"bufferView":14,
			"componentType":5126,
			"count":192,
			"type":"VEC2"
		},
		{
			"bufferView":15,
			"componentType":5126,
			"count":192,
			"max":[
				1,
				1,
				1
			],
			"min":[
				-1,
				-1,
				-1
			],
			"type":"VEC3"
		},
		{
			"bufferView":16,
			"componentType":5126,
			"count":192,
			"type":"VEC3"
		},
		{
			"bufferView":17,
			"componentType":5126,
			"count":192,
			"type":"VEC2"
		},
		{
			"bufferView":18,
			"componentType":5126,
			"count":192,
			"max":[
				1,
				1,
				1
			],
			"min":[
				-1,
				-1,
				-1
			],
			"type":"VEC3"
		},
		{
			"bufferView":19,
			"componentType":5126,
			"count":192,
			"type":"VEC3"
		},
		{
			"bufferView":20,
			"componentType":5126,
			"count":192,
			"type":"VEC2"
		},
		{
			"bufferView":21,
			"componentType":5126,
			"count":192,
			"max":[
				1,
				1,
				1
			],
			"min":[
				-1,
				-1,
				-1
			],
			"type":"VEC3"
		},
		{
			"bufferView":22,
			"componentType":5126,
			"count":192,
			"type":"VEC3"
		},
		{
			"bufferView":23,
			"componentType":5126,
			"count":192,
			"type":"VEC2"
		},
		{
			"bufferView":24,
			"componentType":5126,
			"count":192,
			"max":[
				1,
				1,
				1
			],
			"min":[
				-1,
				-1,
				-1
			],
			"type":"VEC3"
		},
		{
			"bufferView":25,
			"componentType":5126,
			"count":192,
			"type":"VEC3"
		},
		{
			"bufferView":26,
			"componentType":5126,
			"count":192,
			"type":"VEC2"
		}
	],
	"bufferViews":[
		{
			"buffer":0,
			"byteLength":1488,
			"byteOffset":0,
			"target":34962
		},
		{
			"buffer":0,
			"byteLength":1488,
			"byteOffset":1488,
			"target":34962
		},
		{
			"buffer":0,
			"byteLength":992,
			"byteOffset":2976,
			"target":34962
		},
		{
			"buffer":0,
			"byteLength":456,
			"byteOffset":3968,
			"target":34963
		},
		{
			"buffer":0,
			"byteLength":24888,
			"byteOffset":4424,
			"target":34962
		},
		{
			"buffer":0,
			"byteLength":24888,
			"byteOffset":29312,
			"target":34962
		},
		{
			"buffer":0,
			"byteLength":16592,
			"byteOffset":54200,
			"target":34962
		},
		{
			"buffer":0,
			"byteLength":7056,
			"byteOffset":70792,
			"target":34963
		},
		{
			"buffer":0,
			"byteLength":2304,
			"byteOffset":77848,
			"target":34962
		},
		{
			"buffer":0,
			"byteLength":2304,
			"byteOffset":80152,
			"target":34962
		},
		{
			"buffer":0,
			"byteLength":1536,
			"byteOffset":82456,
			"target":34962
		},
		{
			"buffer":0,
			"byteLength":744,
			"byteOffset":83992,
			"target":34963
		},
		{
			"buffer":0,
			"byteLength":2304,
			"byteOffset":84736,
			"target":34962
		},
		{
			"buffer":0,
			"byteLength":2304,
			"byteOffset":87040,
			"target":34962
		},
		{
			"buffer":0,
			"byteLength":1536,
			"byteOffset":89344,
			"target":34962
		},
		{
			"buffer":0,
			"byteLength":2304,
			"byteOffset":90880,
			"target":34962
		},
		{
			"buffer":0,
			"byteLength":2304,
			"byteOffset":93184,
			"target":34962
		},
		{
			"buffer":0,
			"byteLength":1536,
			"byteOffset":95488,
			"target":34962
		},
		{
			"buffer":0,
			"byteLength":2304,
			"byteOffset":97024,
			"target":34962
		},
		{
			"buffer":0,
			"byteLength":2304,
			"byteOffset":99328,
			"target":34962
		},
		{
			"buffer":0,
			"byteLength":1536,
			"byteOffset":101632,
			"target":34962
		},
		{
			"buffer":0,
			"byteLength":2304,
			"byteOffset":103168,
			"target":34962
		},
		{
			"buffer":0,
			"byteLength":2304,
			"byteOffset":105472,
			"target":34962
		},
		{
			"buffer":0,
			"byteLength":1536,
			"byteOffset":107776,
			"target":34962
		},
		{
			"buffer":0,
			"byteLength":2304,
			"byteOffset":109312,
			"target":34962
		},
		{
			"buffer":0,
			"byteLength":2304,
			"byteOffset":111616,
			"target":34962
		},
		{
			"buffer":0,
			"byteLength":1536,
			"byteOffset":113920,
			"target":34962
		}
	],
	"buffers":[
		{
			"byteLength":115456,
			"uri":"thingy.bin"
		}
	]
}
